HIERARCHY
ROOT Hips
{
     OFFSET 9.45640 97.64010 -15.73930
     CHANNELS 6 Xposition Yposition Zposition Zrotation Xrotation Yrotation
     JOINT Spine
     {
          OFFSET 0.00000 11.89050 -0.00000
          CHANNELS 3 Zrotation Xrotation Yrotation
          JOINT Spine1
          {
               OFFSET -0.00000 25.65740 0.12766
               CHANNELS 3 Zrotation Xrotation Yrotation
               JOINT HEad
               {
                    OFFSET -0.00000 8.73416 0.01134
                    CHANNELS 3 Zrotation Xrotation Yrotation
                    End Site
                    {
                         OFFSET -0.29000 12.77420 2.51395
                    }
               }
               JOINT LeftShoulder1
               {
                    OFFSET 8.99000 -0.36225 -0.22000
                    CHANNELS 3 Zrotation Xrotation Yrotation
                    JOINT LeftArm
                    {
                         OFFSET 10.28270 -0.00338 0.32212
                         CHANNELS 3 Zrotation Xrotation Yrotation
                         JOINT LeftForeArm
                         {
                              OFFSET 32.76690 0.09914 -1.42434
                              CHANNELS 3 Zrotation Xrotation Yrotation
                              JOINT LeftHand
                              {
                                   OFFSET 27.56430 0.08536 1.02216
                                   CHANNELS 3 Zrotation Xrotation Yrotation
                                   End Site
                                   {
                                        OFFSET 16.74430 -0.60000 1.50291
                                   }
                              }
                         }
                    }
               }
               JOINT RightShoulder
               {
                    OFFSET -8.99000 -0.36225 -0.22000
                    CHANNELS 3 Zrotation Xrotation Yrotation
                    JOINT RightArm
                    {
                         OFFSET -10.28270 -0.00338 0.32212
                         CHANNELS 3 Zrotation Xrotation Yrotation
                         JOINT RightForeArm
                         {
                              OFFSET -32.89710 0.09914 -1.42434
                              CHANNELS 3 Zrotation Xrotation Yrotation
                              JOINT RightHand
                              {
                                   OFFSET -27.49210 0.08536 1.02216
                                   CHANNELS 3 Zrotation Xrotation Yrotation
                                   End Site
                                   {
                                        OFFSET -16.63120 -0.60000 1.50291
                                   }
                              }
                         }
                    }
               }
          }
     }
     JOINT LeftUpLeg
     {
          OFFSET 8.94580 -8.66707 0.10165
          CHANNELS 3 Zrotation Xrotation Yrotation
          JOINT LeftLeg
          {
               OFFSET -0.00000 -44.42270 1.37270
               CHANNELS 3 Zrotation Xrotation Yrotation
               JOINT LeftFoot
               {
                    OFFSET -0.25355 -42.09240 -1.46059
                    CHANNELS 3 Zrotation Xrotation Yrotation
                    JOINT LeftToes
                    {
                         OFFSET -0.04000 -4.41509 8.49910
                         CHANNELS 3 Zrotation Xrotation Yrotation
                         End Site
                         {
                              OFFSET 0.08000 -0.04745 9.77979
                         }
                    }
               }
          }
     }
     JOINT RightUpLeg
     {
          OFFSET -8.94580 -8.66707 0.10165
          CHANNELS 3 Zrotation Xrotation Yrotation
          JOINT RightLeg
          {
               OFFSET 0.00000 -44.42270 1.37270
               CHANNELS 3 Zrotation Xrotation Yrotation
               JOINT RightFoot
               {
                    OFFSET 0.25355 -42.09240 -1.46059
                    CHANNELS 3 Zrotation Xrotation Yrotation
                    JOINT RightToes
                    {
                         OFFSET 0.04000 -4.41509 8.49910
                         CHANNELS 3 Zrotation Xrotation Yrotation
                         End Site
                         {
                              OFFSET -0.08000 -0.13745 9.77979
                         }
                    }
               }
          }
     }
}
MOTION
Frames: 14
Frame Time: 0.01667
9.45640 97.64010 -15.73930 -0.73765 -0.85661 -32.02720 -1.18006 4.69468 3.68223 -2.43588 9.29658 7.32144 -3.06652 1.76536 30.30340 -0.00000 -0.00000 0.00000 -86.60090 -30.55690 -84.22610 -17.42570 30.09050 -81.97440 5.55594 9.67997 -0.87718 26.39510 2.70111 7.30989 60.00920 -20.85140 65.00370 28.07960 45.81300 93.97850 -5.55712 9.68432 0.87760 11.90160 -17.57580 7.71384 -0.14738 24.10300 -3.01967 -3.67936 3.94822 0.33290 0.68779 -27.03780 -5.95393 -14.58450 4.84484 -1.79843 3.33059 23.38040 -2.75053 14.72720 -16.30710 0.91075 -1.28913 -2.58199 -0.78623 
9.27550 97.48390 -16.40340 -0.73234 -0.85512 -32.89800 -0.94203 4.69466 3.72479 -2.46132 9.33899 7.46425 -3.45133 1.41408 30.90160 -0.00000 -0.00000 0.00000 -86.95330 -30.96260 -83.95690 -17.53090 30.19290 -82.27710 5.55594 9.67997 -0.87718 26.29720 2.68720 7.29034 59.31910 -20.38850 64.76960 27.53450 45.38640 94.02830 -5.55712 9.68432 0.87760 12.49740 -17.80110 7.83385 -0.24007 24.54200 -2.57353 -5.14258 3.55955 0.46608 0.71161 -26.11070 -6.07351 -14.35590 5.01415 -2.52713 3.22149 22.47720 -1.88837 13.55870 -17.94500 1.01043 -0.66059 -1.34039 -0.02155 
9.13420 97.35430 -17.06700 -0.83661 -0.83228 -33.81440 -0.64174 4.70951 3.77489 -2.40974 9.41627 7.61431 -3.76418 1.06242 31.51180 -0.00000 -0.00000 0.00000 -87.23870 -31.23920 -83.49950 -17.60430 30.26010 -82.67580 5.55594 9.67997 -0.87718 26.25370 2.68021 7.27871 58.49850 -19.95830 64.52490 26.92120 44.87560 94.13540 -5.55712 9.68432 0.87760 13.11890 -17.90110 8.00151 -0.20357 24.80490 -2.04633 -6.33369 3.48053 0.57891 0.72184 -25.71170 -6.36397 -13.83610 5.02919 -3.32427 2.49328 21.78880 -0.67008 13.01500 -19.00890 1.07924 -0.64920 -0.74412 1.01908 
9.02255 97.24530 -17.72110 -0.97358 -0.82503 -34.75040 -0.35971 4.74664 3.82471 -2.33005 9.53200 7.74663 -4.01776 0.71330 32.16070 -0.00000 -0.00000 0.00000 -87.40430 -31.38570 -82.89490 -17.62330 30.27300 -83.15160 5.55594 9.67997 -0.87718 26.24360 2.67746 7.27201 57.63890 -19.54790 64.29160 26.28530 44.32020 94.27980 -5.55712 9.68432 0.87760 13.63280 -17.88580 8.19257 0.02983 24.88250 -1.51616 -7.31083 3.71884 0.68774 0.71552 -25.85790 -6.82768 -13.19170 4.89081 -3.86291 1.47418 21.31010 0.42774 12.87010 -19.54570 1.12405 -1.20335 -0.81756 2.23860 
8.93102 97.16520 -18.34970 -1.09759 -0.84743 -35.65180 -0.11697 4.80939 3.84874 -2.24538 9.69162 7.81764 -4.24398 0.40818 32.86140 -0.00000 -0.00000 0.00000 -87.47650 -31.44010 -82.22590 -17.59740 30.25560 -83.66990 5.55594 9.67997 -0.87718 26.19630 2.66836 7.25398 56.88100 -19.11990 64.13210 25.67580 43.76740 94.40900 -5.55712 9.68432 0.87760 13.97020 -17.76260 8.33553 0.44245 24.75450 -1.05627 -8.12934 4.16060 0.79769 0.69523 -26.30920 -7.36345 -12.57870 4.66538 -3.95347 0.53185 20.96730 1.06139 12.81340 -19.64830 1.12932 -2.12847 -1.40898 3.49577 
8.85627 97.12210 -18.93900 -1.19851 -0.90146 -36.47760 0.09167 4.89577 3.82728 -2.14774 9.89260 7.79091 -4.47977 0.17075 33.60280 -0.00000 -0.00000 0.00000 -87.53140 -31.47450 -81.56770 -17.55910 30.25560 -84.18210 5.55594 9.67997 -0.87718 26.04620 2.64267 7.20776 56.32890 -18.64250 64.08190 25.15020 43.26950 94.45740 -5.55712 9.68432 0.87760 14.12880 -17.53750 8.36790 0.97014 24.42890 -0.69549 -8.88797 4.60455 0.90772 0.67222 -26.72540 -7.86155 -12.07280 4.40643 -3.67974 -0.18044 20.74230 1.28553 12.77300 -19.56220 1.11543 -3.06643 -2.12860 4.61332 
8.80418 97.11930 -19.47460 -1.28353 -0.97061 -37.21500 0.29397 4.98605 3.75421 -2.02301 10.09990 7.65630 -4.71635 -0.02192 34.37360 -0.00000 -0.00000 0.00000 -87.62160 -31.56100 -80.95160 -17.54350 30.30810 -84.63760 5.55594 9.67997 -0.87718 25.81460 2.60331 7.13644 55.95350 -18.14370 64.10730 24.75820 42.87290 94.39230 -5.55712 9.68432 0.87760 14.14980 -17.23630 8.25794 1.53692 23.96870 -0.44556 -9.70137 4.73540 1.00532 0.67062 -26.69260 -8.11524 -11.68310 4.13319 -3.29549 -0.68958 20.63770 1.43780 12.81630 -19.59650 1.12390 -3.59661 -2.47211 5.38857 
8.78234 97.15170 -19.94180 -1.35114 -1.01958 -37.87710 0.52095 5.04831 3.63717 -1.87194 10.25440 7.43177 -4.90017 -0.19332 35.17390 -0.00000 -0.00000 0.00000 -87.75950 -31.74110 -80.39120 -17.57810 30.42440 -85.00220 5.55594 9.67997 -0.87718 25.57620 2.56145 7.05690 55.64140 -17.69200 64.14720 24.51410 42.60150 94.23000 -5.55712 9.68432 0.87760 14.10020 -16.90970 7.99404 2.04016 23.46300 -0.27979 -10.53960 4.26855 1.05655 0.70902 -25.91060 -7.84815 -11.39170 3.83331 -3.05044 -1.08023 20.62860 1.84219 12.93160 -19.88730 1.16894 -3.52852 -2.20325 5.70150 
8.79044 97.20290 -20.33220 -1.38710 -1.02487 -38.50020 0.76907 5.06522 3.49070 -1.70786 10.32000 7.15471 -5.00509 -0.31745 36.00560 -0.00000 -0.00000 0.00000 -87.96120 -32.03140 -79.92810 -17.67410 30.59560 -85.26080 5.55594 9.67997 -0.87718 25.34840 2.52020 6.97497 55.33380 -17.30180 64.17640 24.38430 42.44300 94.00970 -5.55712 9.68432 0.87760 14.04540 -16.60590 7.61624 2.38514 22.99720 -0.14050 -11.23680 3.14819 1.02700 0.76964 -24.33760 -6.96476 -11.18480 3.48610 -3.07126 -1.43120 20.67550 2.62843 13.01260 -20.33700 1.22871 -3.02488 -1.52352 5.59977 
8.81843 97.26620 -20.66050 -1.39268 -0.98982 -39.14780 1.04095 5.04081 3.33885 -1.54283 10.30510 6.86738 -5.06639 -0.31602 36.85620 -0.00000 -0.00000 0.00000 -88.26730 -32.44220 -79.64210 -17.82110 30.79480 -85.39810 5.55594 9.67997 -0.87718 25.07260 2.47149 6.87850 55.06390 -16.89040 64.22270 24.29030 42.34390 93.77630 -5.55712 9.68432 0.87760 14.04760 -16.30310 7.22109 2.52566 22.55630 0.06450 -11.68990 1.66265 0.92805 0.80564 -22.22680 -5.69887 -11.03510 3.11549 -3.33728 -1.79082 20.67470 3.74204 12.93970 -20.71020 1.26230 -2.43954 -0.84928 5.27820 
8.85465 97.33180 -20.95040 -1.37273 -0.93697 -39.87490 1.30815 4.99385 3.20141 -1.39078 10.24200 6.60841 -5.14742 -0.12265 37.68540 -0.00000 -0.00000 0.00000 -88.72610 -32.96750 -79.61840 -17.99510 30.98990 -85.38860 5.55594 9.67997 -0.87718 24.71560 2.41112 6.76071 54.85780 -16.36690 64.33130 24.14360 42.23170 93.57350 -5.55712 9.68432 0.87760 14.15030 -15.98130 6.89351 2.44545 22.13610 0.44535 -11.92770 0.23443 0.80788 0.79080 -20.07100 -4.42906 -10.91450 2.74097 -3.72686 -2.19040 20.57830 5.03021 12.67430 -20.86980 1.24843 -2.05162 -0.46431 4.96312 
8.89213 97.39180 -21.22180 -1.33426 -0.87986 -40.71090 1.54340 4.93864 3.09656 -1.26076 10.15490 6.41265 -5.29891 0.22556 38.45130 -0.00000 -0.00000 0.00000 -89.36360 -33.56240 -79.90380 -18.17280 31.16230 -85.21570 5.55594 9.67997 -0.87718 24.34690 2.35104 6.64435 54.64560 -15.74460 64.52040 23.90010 42.05480 93.42510 -5.55712 9.68432 0.87760 14.37820 -15.64030 6.67792 2.15218 21.74700 1.06209 -12.03470 -0.85409 0.70769 0.74059 -18.34000 -3.39093 -10.78720 2.35609 -4.10024 -2.65399 20.40620 6.34531 12.26750 -20.84760 1.19728 -1.90237 -0.35351 4.77954 
8.92861 97.44100 -21.47570 -1.27937 -0.81868 -41.64170 1.73847 4.87866 3.03352 -1.15375 10.05010 6.29775 -5.53327 0.59936 39.15550 -0.00000 -0.00000 0.00000 -90.16080 -34.15260 -80.47950 -18.34170 31.31370 -84.89260 5.55594 9.67997 -0.87718 24.07710 2.30916 6.56512 54.32080 -15.13580 64.76000 23.59400 41.81560 93.32280 -5.55712 9.68432 0.87760 14.71170 -15.29960 6.59403 1.70631 21.40530 1.86353 -12.08040 -1.55774 0.64049 0.68398 -17.24740 -2.63233 -10.63490 1.93674 -4.37061 -3.18207 20.22920 7.59157 11.80760 -20.76240 1.13357 -1.87277 -0.34132 4.72650 
8.96336 97.47710 -21.69870 -1.20884 -0.74570 -42.60460 1.90545 4.80920 3.00375 -1.06070 9.92080 6.24608 -5.81932 0.87709 39.83150 -0.00000 -0.00000 0.00000 -91.05270 -34.67520 -81.26300 -18.50010 31.45840 -84.46520 5.55594 9.67997 -0.87718 23.94940 2.29186 6.53677 53.85570 -14.64280 64.99090 23.29870 41.56070 93.24630 -5.55712 9.68432 0.87760 15.09190 -14.99040 6.64220 1.21785 21.12000 2.72218 -12.10850 -1.94828 0.60305 0.64297 -16.76080 -2.15938 -10.46210 1.47422 -4.52595 -3.74229 20.10920 8.70665 11.38860 -20.69070 1.07677 -1.87740 -0.32001 4.77466 
